<svg width="159" height="95" viewBox="0 0 159 95" fill="none" xmlns="http://www.w3.org/2000/svg">
<path d="M143.451 94.1813C143.404 94.3112 135.216 94.4676 135.157 94.5975H121.202L120.353 94.5948L117.118 94.5846H80.5474L77.5414 94.5808L77.1683 94.5803L72.1537 94.5743L69.8671 94.5711H41.7119L29.9517 94.5587H8.6855C8.6855 94.5587 8.65071 94.4541 8.57993 94.2455L8.56853 94.219C8.56853 94.219 8.55653 94.1932 8.55653 94.1808C8.50975 94.0761 -16.0552 42.3244 18.2718 32.9198C31.4106 29.32 36.9902 27.5202 50.669 10.0616C62.246 -4.71461 105.573 -1.63118 117.118 10.0616C118.632 11.5949 140.749 16.0934 135.323 27C131.897 33.8855 146.926 45.0986 152 45.5C169.354 46.8719 143.569 93.9202 143.451 94.1813Z" fill="#ABDBEA" fill-opacity="0.75"/>
<path d="M45.8913 18.2898C47.7365 15.3221 52.8842 17.9693 52.8842 17.9693C52.8842 17.9693 54.8872 24.7345 55.9239 25.1926C56.9601 25.6506 55.3409 19.0737 55.3409 19.0737C57.4875 19.499 62.0362 23.6536 62.0362 23.6536C62.0362 23.6536 59.7182 30.1475 60.8352 30.3364C61.9527 30.5253 62.5942 24.4818 62.5942 24.4818C64.4312 25.6937 65.6083 28.615 65.6083 28.615C66.811 33.1589 60.9143 34.4691 60.9143 34.4691C60.9143 34.4691 60.1598 36.7369 60.7844 39.7865C60.7844 39.7865 60.9574 40.3668 61.035 41.2878L60.4841 41.1224C60.4836 40.9614 60.4765 40.8036 60.4634 40.6502L60.4628 40.6475L60.4623 40.6409C60.4503 40.5448 60.4323 40.4072 60.4088 40.2396V40.2391V40.238C60.34 39.8586 60.299 39.5812 60.2799 39.3842V39.382C60.0861 38.1973 59.7651 36.6327 59.3655 36.2052C59.3655 36.2052 59.4523 36.1375 59.5593 35.9879C59.4976 36.0572 59.4332 36.1293 59.3655 36.2052C57.8167 37.9407 53.0054 36.8619 50.5421 35.5353C48.0788 34.2082 49.4459 33.8118 51.2196 33.0349C52.9944 32.2581 55.86 33.464 56.8766 33.256C57.8931 33.0475 56.7559 32.1926 54.9658 31.8017C53.1757 31.4102 51.7748 32.8974 48.8672 32.3176C45.9601 31.7372 45.4037 25.774 45.4037 25.774C47.1731 26.9658 50.9963 26.9407 51.3332 26.3079C51.67 25.6752 46.4678 24.1859 45.7204 23.7415C44.9741 23.2971 44.0459 21.2569 45.8913 18.2898Z" fill="#DFEBFD"/>
<path d="M85.1264 26.5256C83.8061 24.4024 80.1229 26.2966 80.1229 26.2966C80.1229 26.2966 78.6904 31.1363 77.9487 31.4644C77.2069 31.792 78.3658 27.087 78.3658 27.087C76.8301 27.3908 73.576 30.3631 73.576 30.3631C73.576 30.3631 75.2339 35.0094 74.4352 35.1447C73.6353 35.28 73.1766 30.9559 73.1766 30.9559C71.8616 31.8228 71.0202 33.9128 71.0202 33.9128C70.1598 37.164 74.3782 38.101 74.3782 38.101C74.3782 38.101 74.9182 39.7239 74.4714 41.9052C74.4714 41.9052 74.3474 42.3206 74.2922 42.9799L74.6856 42.8612C74.6862 42.7461 74.6909 42.6333 74.701 42.5235L74.7016 42.5218V42.517C74.7105 42.4476 74.723 42.3497 74.7396 42.2298V42.2292L74.7402 42.2286C74.7895 41.9568 74.8185 41.7587 74.8322 41.6174V41.6162C74.9704 40.7683 75.2007 39.6491 75.4867 39.3429C75.4867 39.3429 75.4244 39.2949 75.3478 39.1881C75.3923 39.2373 75.438 39.2889 75.4867 39.3429C76.5946 40.5849 80.0368 39.8135 81.7986 38.8641C83.561 37.9146 82.5831 37.631 81.3138 37.075C80.0446 36.519 77.9944 37.3824 77.2669 37.2334C76.54 37.0845 77.3535 36.4727 78.6341 36.1926C79.9146 35.9131 80.9174 36.9765 82.9967 36.5617C85.0771 36.1469 85.4753 31.8804 85.4753 31.8804C84.209 32.7331 81.4741 32.7147 81.2331 32.2625C80.9922 31.8098 84.714 30.7441 85.2486 30.426C85.7827 30.1079 86.4467 28.6488 85.1264 26.5256Z" fill="#CDE0FB"/>
<path d="M61.7646 89.8159C61.8277 89.7188 61.8881 89.6245 61.9463 89.5355C61.8612 89.7037 61.7819 89.7959 61.7646 89.8159ZM67.6343 79.9556C67.6343 79.9556 65.7612 76.7878 63.4259 75.7116C63.4259 75.7116 63.7489 82.8047 62.4252 82.7832C61.1014 82.7621 62.6349 74.8532 62.6349 74.8532C62.6349 74.8532 56.6504 70.8562 54.0962 70.7435C54.0962 70.7435 57.1243 78.0539 55.847 77.7072C54.5696 77.3605 51.0648 69.9002 51.0648 69.9002C51.0648 69.9002 44.6533 67.7488 43.0443 71.501C41.4355 75.2533 42.8668 77.4457 43.8073 77.8274C44.7487 78.2092 51.0185 79.0136 50.7413 79.8036C50.4636 80.5935 46.053 81.2961 43.7992 80.2306C43.7992 80.2306 45.4912 87.0202 48.9517 87.1787C52.4118 87.3367 53.7673 85.3724 55.9036 85.5093C58.0404 85.6452 59.5043 86.433 58.3666 86.8525C57.23 87.2714 53.7074 86.3834 51.7949 87.5933C49.8824 88.8027 48.3743 89.5015 51.4525 90.5999C54.5303 91.6988 60.2781 92.0978 61.7609 89.8202C62.2979 90.244 62.9439 91.9948 63.3763 93.3287V93.3304C63.4334 93.5547 63.5289 93.8679 63.6755 94.2944L63.6766 94.295V94.2966C63.7068 94.3985 63.7338 94.4907 63.7575 94.571H64.3544C64.3037 94.4131 64.2557 94.275 64.2126 94.158C64.1058 93.8669 64.0303 93.7067 64.0303 93.7067C62.7719 90.2952 63.2437 87.5426 63.2437 87.5426C63.2437 87.5426 69.8235 84.9917 67.6343 79.9556Z" fill="#AFCDFB"/>
<path d="M72.1539 67.5644V94.5743L69.8671 94.5711H69.7814V67.5644H72.1539Z" fill="#94B0ED"/>
<path d="M46.3776 67.5645H73.4021V52.0496C73.4021 44.5872 67.3528 38.5374 59.8898 38.5374C52.4274 38.5374 46.3776 44.5872 46.3776 52.0496V67.5645Z" fill="#AFCDFB"/>
<path d="M81.0872 38.5375H59.0652V56.1318H78.3979L81.0872 38.5375Z" fill="#AFCDFB"/>
<path d="M67.5747 67.5646H94.5993V52.0498C94.5993 44.5874 88.5499 38.5375 81.087 38.5375C73.6247 38.5375 67.5747 44.5874 67.5747 52.0498V67.5646Z" fill="#628AD3"/>
<path d="M69.0298 66.0023H93.1456V52.1574C93.1456 45.4981 87.7473 40.0995 81.0877 40.0995C74.4287 40.0995 69.0298 45.4981 69.0298 52.1574V66.0023Z" fill="#233862"/>
<path d="M116.062 67.5646H67.1687C66.7373 67.5646 66.3874 67.2151 66.3874 66.7838C66.3874 66.3524 66.7373 66.0025 67.1687 66.0025H116.062C116.493 66.0025 116.843 66.3524 116.843 66.7838C116.843 67.2151 116.493 67.5646 116.062 67.5646Z" fill="#628AD3"/>
<path d="M65.4311 68.9971H76.8844C77.2894 68.9971 77.6183 68.6682 77.6183 68.2632V67.5294H64.6557V68.2206C64.6557 68.6493 65.0029 68.9971 65.4311 68.9971Z" fill="#94B0ED"/>
<path d="M116.991 32.3238C116.991 32.3238 116.736 29.5501 119.836 29.5501C119.836 29.5501 118.897 29.8043 118.411 30.3138C118.411 30.3138 120.387 29.1533 122.538 30.9369C124.69 32.7196 123.353 37.1922 124.007 38.0406C124.661 38.8901 127.208 39.0596 126.897 41.8053C126.586 44.5501 118.813 47.9893 119.312 50.2607C119.312 50.2607 116.265 45.783 118.444 43.7389C118.444 43.7389 117.383 44.7392 117.274 45.9276C117.274 45.9276 116.986 43.6076 118.462 42.8646C119.77 42.2084 120.84 39.8057 120.728 39.3758C120.614 38.9469 116.991 32.3238 116.991 32.3238Z" fill="#2C3A64"/>
<path d="M121.365 43.971C121.365 43.971 116.956 55.0974 116.005 54.6852C115.054 54.2729 109.455 52.4948 109.455 52.4948L109.087 53.8575C109.087 53.8575 114.415 57.9638 117.158 58.1434C119.9 58.3231 123.614 50.2445 123.614 50.2445L121.365 43.971Z" fill="#FFB27D"/>
<path d="M121.412 51.9543L125.761 67.1511C125.824 67.375 125.846 67.6021 125.831 67.8211C125.778 68.6202 125.232 69.3367 124.418 69.5694L98.0257 77.1215C97.2077 77.3554 96.3641 77.0303 95.8967 76.3751C95.7706 76.1987 95.6722 75.9986 95.6097 75.7782L91.2634 60.588C90.9662 59.5485 91.5658 58.4671 92.6032 58.1702L118.995 50.6179C120.031 50.3217 121.111 50.9183 121.412 51.9543Z" fill="#ED8537"/>
<path d="M125.831 67.8217C125.777 68.6207 125.231 69.3372 124.417 69.57L98.0255 77.122C97.2075 77.3559 96.363 77.0309 95.8966 76.3756L109.339 64.1293L125.831 67.8217Z" fill="#DD6D22"/>
<path d="M121.412 51.9548L109.596 66.6268L91.485 61.366L91.2625 60.5884C90.9651 59.549 91.5658 58.4675 92.6026 58.1706L118.995 50.6187C120.031 50.3223 121.11 50.919 121.412 51.9548Z" fill="#F99746"/>
<path d="M111.409 52.7785C111.409 52.7785 108.994 51.7587 108.659 53.0501C108.482 53.7318 108.068 54.6337 108.814 54.5653C109.558 54.4979 110.307 53.9978 110.389 53.5914C110.472 53.1849 111.409 52.7785 111.409 52.7785Z" fill="#FFB27D"/>
<path d="M141.801 62.4688C141.781 62.5054 141.759 62.5434 141.737 62.5813C141.232 63.4617 140.068 65.6198 138.788 67.9809C138.183 69.1011 137.549 70.2678 136.948 71.3646C135.911 73.2584 134.969 74.9453 134.419 75.8361C133.859 76.7428 133.448 77.3796 133.28 77.6337L133.279 77.6354C133.229 77.7138 133.219 77.8059 133.225 77.8979C133.284 78.6975 133.267 79.4911 133.188 80.273C132.416 87.9546 127.236 92.0715 127.236 92.0715L125.695 92.2994C125.695 92.2994 127.875 84.2244 128.518 79.6591C128.627 78.8857 128.673 78.2585 128.636 77.849C128.522 76.6602 128.734 74.9141 129.133 72.9089C129.843 69.3463 131.149 64.9735 132.282 61.4732C132.354 61.2497 134.521 53.4145 134.521 53.4145C136.338 55.0034 142.969 55.6591 142.969 55.6591C142.969 55.6591 144.093 58.3927 141.801 62.4688Z" fill="#2B478B"/>
<path d="M122.463 94.2482H128.891C128.891 94.2482 129.046 93.2679 128.709 92.525C128.387 91.8114 127.93 91.7895 128.652 90.6707C128.242 91.0922 126.93 91.2652 126 91.1402C125.886 91.3251 125.267 92.5637 124.886 92.8373C124.466 93.1387 122.592 93.0315 122.463 94.2482Z" fill="#233862"/>
<path d="M141.8 62.469C141.78 62.5055 141.758 62.5434 141.738 62.5814C141.23 63.4619 138.491 68.5227 137.21 70.8843C138.693 64.7812 137.661 58.6785 137.661 58.6785L141.8 62.469Z" fill="#233862"/>
<path d="M117.868 31.933C117.826 31.7642 121.54 33.6113 121.728 33.8205C123.469 35.7525 122.973 38.2737 121.977 38.2979C121.337 38.3131 121.461 39.3761 121.461 39.3761L114.341 36.3639C114.341 36.3639 115.198 31.3651 117.868 31.933Z" fill="#2C3A64"/>
<path d="M120.26 44.2034C120.26 44.2034 119.311 45.1847 119.311 48.1236C119.311 48.1236 120.618 50.1867 124.006 50.7087C124.006 50.7087 121.093 44.2014 120.26 44.2034Z" fill="#F9DDBF"/>
<path d="M136.79 56.1376L136.769 54.9352C139.163 55.2372 145.027 52.0727 145.027 52.0727C145.027 52.0727 147.534 53.7396 147.877 58.4996C148.044 60.8229 149.104 70.6484 149.221 73.5824C149.264 74.6463 149.277 75.4045 149.283 75.7084L149.282 75.7109C149.283 75.8038 149.326 75.8849 149.384 75.9583C149.879 76.5881 150.309 77.256 150.682 77.9484C154.337 84.7485 152.425 93.9896 152.425 93.9896L151.577 93.7734C151.577 93.7734 148.486 84.1938 146.466 80.0508C146.123 79.3474 145.812 78.8011 145.551 78.4845C144.792 77.5625 143.992 75.9954 143.202 74.1101C141.71 70.5462 136.79 56.1376 136.79 56.1376Z" fill="#2B478B"/>
<path d="M147.315 94.2479H153.743C153.743 94.2479 153.896 93.2677 153.56 92.5246C153.239 91.8113 152.735 91.487 152.855 90.624C152.448 91.0454 151.781 91.5157 150.852 91.3907C150.738 91.5757 150.117 92.5635 149.736 92.8371C149.317 93.1385 147.444 93.0313 147.315 94.2479Z" fill="#233862"/>
<path d="M124.44 52.0889C125.304 52.2363 124.299 52.9227 125.487 53.0517C127.177 53.2362 128.922 53.3625 129.836 53.727C130.17 53.86 130.393 54.0241 130.462 54.2342C130.859 55.4257 133.368 57.4733 133.368 57.4733C144.562 56.9638 145.028 52.0729 145.028 52.0729C137.762 45.0174 131.083 40.8568 125.983 40.306C125.11 40.2118 124.006 40.7658 123.22 41.1157C121.434 41.911 120.26 44.2031 120.26 44.2031C120.26 44.2031 121.159 51.5293 124.44 52.0889Z" fill="#F9DDBF"/>
<path d="M125.487 53.0515C127.177 53.2361 128.922 53.3624 129.836 53.7269C130.21 48.1439 127.576 43.945 127.576 43.945C127.576 43.945 125.856 50.9391 125.487 53.0515Z" fill="#F2CCAA"/>
<path d="M124.03 43.0002C124.03 43.0002 128.279 42.7683 129.036 45.4365C129.79 48.1048 127.618 58.7574 127.15 59.8568C126.298 61.8585 122.148 67.5712 122.148 67.5712L120.623 67.1066C120.623 67.1066 123.39 58.3793 124.007 57.5158C124.976 56.16 122.757 44.1606 124.03 43.0002Z" fill="#FFB27D"/>
<path d="M120.622 67.1068C120.622 67.1068 120.543 67.7836 120.258 68.1328C119.972 68.4821 119.14 69.3276 119.125 69.8229C119.125 69.8229 119.167 70.0423 119.346 70.0018C119.523 69.9622 120.143 69.3484 120.461 69.3924C120.461 69.3924 120.292 70.3843 120.123 70.6638C119.955 70.9424 120.089 72.127 120.191 72.3685C120.291 72.6091 121.531 71.0741 122.041 70.3885C122.551 69.7031 122.049 66.921 122.049 66.921L120.622 67.1068Z" fill="#FFB27D"/>
<path d="M129.874 49.0048C129.864 49.0678 125.851 49.743 123.342 48.4694C123.342 48.4694 121.246 41.9031 124.242 42.217C127.237 42.5319 129.01 43.4746 129.087 44.9086C129.161 46.3426 129.874 49.0048 129.874 49.0048Z" fill="#F9DDBF"/>
<path d="M123.22 41.1156C123.22 41.1156 122.038 45.5247 120.26 44.203C120.309 43.9901 119.999 43.3716 119.634 42.7431C119.166 41.9389 118.61 41.1186 118.61 41.1186L121.015 39.011L121.159 38.8848C121.896 40.1713 122.619 40.6767 123.22 41.1156Z" fill="#FFB27D"/>
<path d="M118.61 41.1191C118.61 41.1191 119.166 41.9379 119.633 42.7428C121.129 41.8204 121.131 39.9696 121.016 39.0103L118.61 41.1191Z" fill="#ED985F"/>
<path d="M118.544 42.1749C118.544 42.1749 122.174 40.1548 120.882 37.9131C119.588 35.6715 119.186 33.901 116.813 35.096C114.44 36.291 114.488 37.4038 114.737 38.257C114.986 39.1101 117.565 42.6431 118.544 42.1749Z" fill="#FFB27D"/>
<path d="M114.124 36.9498C114.29 35.9541 114.796 35.8592 115.149 35.9252C116.49 33.7081 118.68 34.574 118.68 34.574C119.851 36.042 121.542 36.2927 121.542 36.2927C121.542 36.2927 121.121 37.0766 119.385 37.5619C118.855 37.7097 118.253 37.6199 117.671 37.4251C118.877 38.0962 120.136 38.3539 120.136 38.3539C117.848 38.5626 115.672 36.4714 115.446 36.2477C115.341 36.5723 115.155 37.2504 115.267 37.7467C115.417 38.4208 116.016 39.6421 115.65 39.7999C115.65 39.7999 113.875 38.4418 114.124 36.9498Z" fill="#2C3A64"/>
<path d="M113.703 30.035L106.726 27.754L107.303 26.9653H107.383L113.703 30.035ZM113.703 30.035L109.236 26.6367L109.523 25.9613L113.703 30.035Z" fill="#B5D1F8"/>
<path d="M113.703 30.035L107.383 26.9653L102.502 24.5945L108.288 25.9156L109.236 26.6367L113.703 30.035Z" fill="#F8FBFF"/>
<path d="M113.703 30.035L109.523 25.9613L110.917 24.3282L113.703 30.035Z" fill="#F8FBFF"/>
<path d="M77.1016 17.0514L83.9449 15.0991L84.0251 15.1136L84.4622 16.0017L77.1016 17.0514ZM77.1016 17.0514L81.9862 13.7222L82.1547 14.4464L77.1016 17.0514Z" fill="#B5D1F8"/>
<path d="M77.1013 17.0519L82.1548 14.4464L83.2268 13.8939L89.2302 13.5917L83.9447 15.0996L77.1013 17.0519Z" fill="#F8FBFF"/>
<path d="M77.101 17.0521L80.8823 11.8488L81.9856 13.723L77.101 17.0521Z" fill="#F8FBFF"/>
<path d="M46.6272 94.571H46.1986C43.9577 94.1354 36.0292 92.4224 36.0964 89.9949C36.1695 87.3712 45.3202 93.6593 46.6272 94.571Z" fill="#CDE0FB"/>
<path d="M50.0862 94.571H48.4562C44.3373 91.881 38.1702 87.2628 38.6513 83.9936C39.3682 79.1177 43.5152 85.4128 44.8657 87.8818C45.7063 89.4185 48.2707 92.48 50.0862 94.571Z" fill="#CDE0FB"/>
<path d="M31.2078 53.2771L25.7521 60.5997C25.6717 60.7078 25.575 60.7977 25.4691 60.8669C25.0837 61.1232 24.5629 61.1232 24.171 60.8317L11.4537 51.3556C11.0597 51.0629 10.9129 50.5613 11.0505 50.1168C11.0874 49.9977 11.1448 49.8823 11.2238 49.7755L16.6772 42.4565C17.0504 41.9548 17.7575 41.8516 18.2574 42.2245L30.9745 51.6993C31.4735 52.071 31.5782 52.7767 31.2078 53.2771Z" fill="#CDE0FB"/>
<path d="M25.4691 60.8669C25.0837 61.1232 24.5629 61.1232 24.171 60.8317L11.4537 51.3556C11.0597 51.0629 10.9129 50.5613 11.0505 50.1168L21.3855 51.9993L25.4691 60.8669Z" fill="#BED7FB"/>
<path d="M31.2078 53.2765L20.3285 52.9923L16.398 42.83L16.6771 42.4559C17.0504 41.9543 17.7574 41.851 18.2573 42.2239L30.9744 51.6988C31.4734 52.0704 31.5781 52.7761 31.2078 53.2765Z" fill="#DFEBFD"/>
<path d="M103.893 93.7084C103.795 94.0163 103.737 94.3085 103.715 94.5846H107.227C106.755 93.1843 106.594 90.36 106.594 90.36C105.001 91.3031 103.893 93.7084 103.893 93.7084ZM120.8 90.4334C121.445 90.0904 122.309 88.4157 120.881 85.8464C119.453 83.2777 115.019 85.2894 115.019 85.2894C115.019 85.2894 113.058 90.8895 112.168 91.2325C111.279 91.5743 112.91 86.1165 112.91 86.1165C111.09 86.385 107.097 89.6876 107.097 89.6876C107.097 89.6876 108.111 93.0366 108.12 94.5846H117.119L120.353 94.5948C120.812 93.338 120.982 92.1534 120.982 92.1534C119.447 93.0824 116.236 92.9034 115.979 92.3583C115.722 91.8132 120.153 90.7762 120.8 90.4334Z" fill="#CDE0FB"/>
<mask id="path-46-inside-1" fill="white">
<path d="M147.779 95H3.22075C3.09937 95 3 94.7131 3 94.364V93.6359C3 93.287 3.09937 93 3.22075 93H147.779C147.901 93 148 93.287 148 93.6359V94.364C148 94.7131 147.901 95 147.779 95Z"/>
</mask>
<path d="M147.779 95H3.22075C3.09937 95 3 94.7131 3 94.364V93.6359C3 93.287 3.09937 93 3.22075 93H147.779C147.901 93 148 93.287 148 93.6359V94.364C148 94.7131 147.901 95 147.779 95Z" fill="#00B3BF"/>
<path d="M147.779 105H3.22075V85H147.779V105ZM3.22075 105C-1.05424 105 -3.64334 102.461 -4.61422 101.27C-5.65596 99.993 -6.1542 98.7494 -6.38292 98.09C-6.87363 96.6754 -7 95.3608 -7 94.364H13C13 93.7163 12.9233 92.7198 12.5126 91.5358C12.3239 90.9918 11.8733 89.8417 10.8843 88.6292C9.96621 87.5036 7.43505 85 3.22075 85V105ZM-7 94.364V93.6359H13V94.364H-7ZM-7 93.6359C-7 92.6387 -6.87349 91.3242 -6.38289 89.9099C-6.15423 89.2507 -5.65611 88.0074 -4.61467 86.7303C-3.64441 85.5406 -1.05526 83 3.22075 83V103C7.43606 103 9.96728 100.495 10.8848 99.3702C11.8734 98.1579 12.324 97.0081 12.5126 96.4643C12.9232 95.2807 13 94.2842 13 93.6359H-7ZM3.22075 83H147.779V103H3.22075V83ZM147.779 83C152.043 83 154.632 85.5276 155.608 86.7224C156.653 88.0005 157.152 89.2457 157.382 89.9063C157.874 91.3229 158 92.639 158 93.6359H138C138 94.2838 138.077 95.282 138.489 96.4679C138.678 97.0131 139.13 98.1648 140.122 99.3781C141.045 100.508 143.575 103 147.779 103V83ZM158 93.6359V94.364H138V93.6359H158ZM158 94.364C158 95.3604 157.874 96.6767 157.382 98.0936C157.152 98.7544 156.652 99.9998 155.608 101.278C154.631 102.474 152.042 105 147.779 105V85C143.576 85 141.046 87.4906 140.122 88.6213C139.13 89.8349 138.678 90.9868 138.489 91.5322C138.077 92.7185 138 93.7167 138 94.364H158Z" fill="#00B3BF" mask="url(#path-46-inside-1)"/>
</svg>
