<svg width="223" height="141" viewBox="0 0 223 141" fill="none" xmlns="http://www.w3.org/2000/svg">
<path d="M6.48832 140.384L79.5009 140.004L98.9621 139.998L105.41 139.996L124.909 139.99L213.992 139.966C213.992 139.966 234.368 113.838 212.604 89.0218C190.037 63.2919 179.064 84.2464 172.127 48.0287C154.668 -43.1366 -17.9609 9.92389 27.3181 87.5015C43.6214 115.434 -4.77384 100.588 6.48832 140.384Z" fill="#EBF3FA"/>
<path d="M6.48832 140.384L79.5009 140.004L98.9621 139.998L105.41 139.996L124.909 139.99L213.992 139.966C213.992 139.966 234.368 113.838 212.604 89.0218C190.037 63.2919 179.064 84.2464 172.127 48.0287C154.668 -43.1366 -17.9609 9.92389 27.3181 87.5015C43.6214 115.434 -4.77384 100.588 6.48832 140.384Z" fill="#EBF3FA"/>
<path d="M73.6575 121.357L73.2625 121.141C72.8408 120.91 72.6857 120.38 72.9167 119.958L74.7301 116.645C74.9612 116.224 75.4919 116.069 75.9135 116.3L76.4789 116.609C76.5613 116.654 76.592 116.758 76.5468 116.841C76.5015 116.923 76.3973 116.954 76.315 116.909L75.7495 116.599C75.4927 116.458 75.1704 116.552 75.0298 116.809L73.2156 120.122C73.0751 120.378 73.1696 120.701 73.4264 120.842L73.8214 121.058C74.0775 121.199 74.4006 121.104 74.5411 120.847L75.7447 118.649C75.7899 118.566 75.8941 118.536 75.9765 118.581C76.0589 118.626 76.0896 118.729 76.0444 118.813L74.84 121.011C74.609 121.433 74.0791 121.588 73.6575 121.357Z" fill="#AFCDFB"/>
<path d="M71.9741 124.835L71.2665 124.448C70.6098 124.088 70.3885 123.223 70.7738 122.519L73.5007 117.539C73.546 117.456 73.6502 117.426 73.7326 117.471C73.815 117.516 73.8457 117.619 73.8004 117.703L71.0735 122.682C70.7778 123.221 70.9386 123.88 71.4305 124.149L72.1381 124.536C72.63 124.806 73.2705 124.586 73.5662 124.048L76.672 118.375C76.9676 117.836 76.8069 117.178 76.315 116.909C76.2326 116.863 76.2019 116.759 76.2471 116.677C76.2923 116.594 76.3965 116.564 76.4789 116.609C77.1356 116.969 77.357 117.834 76.9717 118.539L73.865 124.212C73.4798 124.915 72.6316 125.195 71.9741 124.835Z" fill="#AFCDFB"/>
<path d="M140.151 102.934H53.2794C51.1438 102.934 49.4124 101.203 49.4124 99.0673V26.1535C49.4124 24.0179 51.1438 22.2865 53.2794 22.2865H140.151C142.288 22.2865 144.019 24.0179 144.019 26.1535V99.0673C144.019 101.203 142.288 102.934 140.151 102.934ZM102.879 63.8404C102.516 63.8404 102.222 64.1344 102.222 64.4973C102.222 64.8601 102.516 65.1543 102.879 65.1543H116.274C116.637 65.1543 116.931 64.8601 116.931 64.4973C116.931 64.1344 116.637 63.8404 116.274 63.8404H102.879ZM90.6631 63.8404C90.3003 63.8404 90.0062 64.1344 90.0062 64.4973C90.0062 64.8601 90.3003 65.1543 90.6631 65.1543H100.44C100.803 65.1543 101.097 64.8601 101.097 64.4973C101.097 64.1344 100.803 63.8404 100.44 63.8404H90.6631ZM56.9099 38.3366V65.1543H83.7287V38.3366H56.9099ZM119.585 59.7663C119.222 59.7663 118.928 60.0604 118.928 60.4231C118.928 60.786 119.222 61.0801 119.585 61.0801H126.424C126.787 61.0801 127.081 60.786 127.081 60.4231C127.081 60.0604 126.787 59.7663 126.424 59.7663H119.585ZM90.6631 59.7663C90.3003 59.7663 90.0062 60.0604 90.0062 60.4231C90.0062 60.786 90.3003 61.0801 90.6631 61.0801H116.574C116.936 61.0801 117.231 60.786 117.231 60.4231C117.231 60.0604 116.936 59.7663 116.574 59.7663H90.6631ZM107.564 54.4205C107.201 54.4205 106.907 54.7147 106.907 55.0774C106.907 55.4403 107.201 55.7343 107.564 55.7343H129.26C129.623 55.7343 129.917 55.4403 129.917 55.0774C129.917 54.7147 129.623 54.4205 129.26 54.4205H107.564ZM90.6631 54.4205C90.3003 54.4205 90.0062 54.7147 90.0062 55.0774C90.0062 55.4403 90.3003 55.7343 90.6631 55.7343H103.929C104.292 55.7343 104.586 55.4403 104.586 55.0774C104.586 54.7147 104.292 54.4205 103.929 54.4205H90.6631ZM119.585 50.8976C119.222 50.8976 118.928 51.1917 118.928 51.5546C118.928 51.9174 119.222 52.2116 119.585 52.2116H126.424C126.787 52.2116 127.081 51.9174 127.081 51.5546C127.081 51.1917 126.787 50.8976 126.424 50.8976H119.585ZM102.879 50.8976C102.516 50.8976 102.222 51.1917 102.222 51.5546C102.222 51.9174 102.516 52.2116 102.879 52.2116H116.274C116.637 52.2116 116.931 51.9174 116.931 51.5546C116.931 51.1917 116.637 50.8976 116.274 50.8976H102.879ZM90.6631 50.8976C90.3003 50.8976 90.0062 51.1917 90.0062 51.5546C90.0062 51.9174 90.3003 52.2116 90.6631 52.2116H100.44C100.803 52.2116 101.097 51.9174 101.097 51.5546C101.097 51.1917 100.803 50.8976 100.44 50.8976H90.6631ZM119.585 46.8235C119.222 46.8235 118.928 47.1176 118.928 47.4804C118.928 47.8433 119.222 48.1374 119.585 48.1374H126.424C126.787 48.1374 127.081 47.8433 127.081 47.4804C127.081 47.1176 126.787 46.8235 126.424 46.8235H119.585ZM90.6631 46.8235C90.3003 46.8235 90.0062 47.1176 90.0062 47.4804C90.0062 47.8433 90.3003 48.1374 90.6631 48.1374H116.574C116.936 48.1374 117.231 47.8433 117.231 47.4804C117.231 47.1176 116.936 46.8235 116.574 46.8235H90.6631ZM91.0199 38.3083C90.46 38.3083 90.0062 38.7621 90.0062 39.322C90.0062 39.8819 90.46 40.3358 91.0199 40.3358H112.352C112.912 40.3358 113.365 39.8819 113.365 39.322C113.365 38.7621 112.912 38.3083 112.352 38.3083H91.0199ZM116.528 36.9489C115.968 36.9489 115.514 37.4027 115.514 37.9626C115.514 38.5225 115.968 38.9763 116.528 38.9763H137.859C138.419 38.9763 138.873 38.5225 138.873 37.9626C138.873 37.4027 138.419 36.9489 137.859 36.9489H116.528Z" fill="#F7FAFD"/>
<path d="M144.019 31.2354H49.4124V25.1731C49.4124 23.5793 50.705 22.2866 52.2994 22.2866H141.133C142.727 22.2866 144.019 23.5793 144.019 25.1731V31.2354Z" fill="#699DEE"/>
<path d="M53.2385 26.7062C53.2385 26.1158 53.7175 25.6368 54.3083 25.6368C54.8992 25.6368 55.3782 26.1158 55.3782 26.7062C55.3782 27.2975 54.8992 27.7765 54.3083 27.7765C53.7175 27.7765 53.2385 27.2975 53.2385 26.7062Z" fill="#DDE7FE"/>
<path d="M57.729 26.7062C57.729 26.1158 58.2081 25.6368 58.799 25.6368C59.3899 25.6368 59.8688 26.1158 59.8688 26.7062C59.8688 27.2975 59.3899 27.7765 58.799 27.7765C58.2081 27.7765 57.729 27.2975 57.729 26.7062Z" fill="#DDE7FE"/>
<path d="M62.2197 26.7062C62.2197 26.1158 62.6987 25.6368 63.2892 25.6368C63.8805 25.6368 64.3595 26.1158 64.3595 26.7062C64.3595 27.2975 63.8805 27.7765 63.2892 27.7765C62.6987 27.7765 62.2197 27.2975 62.2197 26.7062Z" fill="#DDE7FE"/>
<path d="M56.9101 65.1537H83.7285V38.3356H56.9101V65.1537Z" fill="#E2EDFC"/>
<path d="M112.353 40.3341H91.0207C90.4605 40.3341 90.0064 39.8808 90.0064 39.3206C90.0064 38.7612 90.4605 38.3071 91.0207 38.3071H112.353C112.912 38.3071 113.365 38.7612 113.365 39.3206C113.365 39.8808 112.912 40.3341 112.353 40.3341Z" fill="#B9CAF7"/>
<path d="M137.861 38.9752H116.529C115.969 38.9752 115.516 38.5219 115.516 37.9618C115.516 37.4017 115.969 36.9484 116.529 36.9484H137.861C138.42 36.9484 138.874 37.4017 138.874 37.9618C138.874 38.5219 138.42 38.9752 137.861 38.9752Z" fill="#B9CAF7"/>
<path d="M116.574 48.1368H90.6638C90.3007 48.1368 90.0062 47.8432 90.0062 47.4801C90.0062 47.117 90.3007 46.8233 90.6638 46.8233H116.574C116.937 46.8233 117.231 47.117 117.231 47.4801C117.231 47.8432 116.937 48.1368 116.574 48.1368Z" fill="#E5EEFC"/>
<path d="M126.424 48.1373H119.584C119.222 48.1373 118.928 47.8435 118.928 47.4808C118.928 47.1181 119.222 46.8234 119.584 46.8234H126.424C126.787 46.8234 127.081 47.1181 127.081 47.4808C127.081 47.8435 126.787 48.1373 126.424 48.1373Z" fill="#E5EEFC"/>
<path d="M100.44 52.2111H90.6639C90.3004 52.2111 90.0063 51.917 90.0063 51.5544C90.0063 51.1917 90.3004 50.8977 90.6639 50.8977H100.44C100.803 50.8977 101.097 51.1917 101.097 51.5544C101.097 51.917 100.803 52.2111 100.44 52.2111Z" fill="#E5EEFC"/>
<path d="M116.274 52.2113H102.879C102.516 52.2113 102.222 51.9166 102.222 51.5543C102.222 51.1911 102.516 50.8972 102.879 50.8972H116.274C116.638 50.8972 116.932 51.1911 116.932 51.5543C116.932 51.9166 116.638 52.2113 116.274 52.2113Z" fill="#E5EEFC"/>
<path d="M126.424 52.2114H119.584C119.222 52.2114 118.928 51.9176 118.928 51.5549C118.928 51.1913 119.222 50.8975 119.584 50.8975H126.424C126.787 50.8975 127.081 51.1913 127.081 51.5549C127.081 51.9176 126.787 52.2114 126.424 52.2114Z" fill="#E5EEFC"/>
<path d="M103.929 55.7336H90.6639C90.3004 55.7336 90.0063 55.4396 90.0063 55.0769C90.0063 54.7143 90.3004 54.4202 90.6639 54.4202H103.929C104.292 54.4202 104.586 54.7143 104.586 55.0769C104.586 55.4396 104.292 55.7336 103.929 55.7336Z" fill="#E5EEFC"/>
<path d="M129.26 55.7345H107.564C107.201 55.7345 106.907 55.4406 106.907 55.0774C106.907 54.7142 107.201 54.4203 107.564 54.4203H129.26C129.623 54.4203 129.917 54.7142 129.917 55.0774C129.917 55.4406 129.623 55.7345 129.26 55.7345Z" fill="#E5EEFC"/>
<path d="M116.574 61.0795H90.6638C90.3007 61.0795 90.0062 60.7858 90.0062 60.4227C90.0062 60.0596 90.3007 59.7659 90.6638 59.7659H116.574C116.937 59.7659 117.231 60.0596 117.231 60.4227C117.231 60.7858 116.937 61.0795 116.574 61.0795Z" fill="#E5EEFC"/>
<path d="M126.424 61.08H119.584C119.222 61.08 118.928 60.7862 118.928 60.4234C118.928 60.0607 119.222 59.766 119.584 59.766H126.424C126.787 59.766 127.081 60.0607 127.081 60.4234C127.081 60.7862 126.787 61.08 126.424 61.08Z" fill="#E5EEFC"/>
<path d="M100.44 65.1537H90.6639C90.3004 65.1537 90.0063 64.8597 90.0063 64.497C90.0063 64.1343 90.3004 63.8403 90.6639 63.8403H100.44C100.803 63.8403 101.097 64.1343 101.097 64.497C101.097 64.8597 100.803 65.1537 100.44 65.1537Z" fill="#E5EEFC"/>
<path d="M116.274 65.1537H102.879C102.516 65.1537 102.222 64.8598 102.222 64.4966C102.222 64.1343 102.516 63.8396 102.879 63.8396H116.274C116.638 63.8396 116.932 64.1343 116.932 64.4966C116.932 64.8598 116.638 65.1537 116.274 65.1537Z" fill="#E5EEFC"/>
<path d="M73.21 52.707L70.2706 45.9049L67.3554 52.707H73.21ZM68.9345 42.3339H71.7043L79.1865 59.4614H76.0282L74.3037 55.3556H66.2617L64.5129 59.4614H61.4515L68.9345 42.3339Z" fill="#BDD1F9"/>
<path d="M71.8909 73.4485H56.9101V70.5559H71.8909V73.4485Z" fill="#F99746"/>
<path d="M71.8909 76.3402H56.9101V73.4485H71.8909V76.3402Z" fill="#ED7D2B"/>
<path d="M71.8909 79.2321H56.9101V76.3403H71.8909V79.2321Z" fill="#474FEA"/>
<path d="M82.9288 72.1932H74.6865C74.3416 72.1932 74.0613 71.9138 74.0613 71.5688C74.0613 71.2239 74.3416 70.9444 74.6865 70.9444H82.9288C83.2737 70.9444 83.5532 71.2239 83.5532 71.5688C83.5532 71.9138 83.2737 72.1932 82.9288 72.1932Z" fill="#BDD1F9"/>
<path d="M80.1518 74.3943H74.6865C74.3416 74.3943 74.0613 74.1148 74.0613 73.7699C74.0613 73.425 74.3416 73.1455 74.6865 73.1455H80.1518C80.4967 73.1455 80.7762 73.425 80.7762 73.7699C80.7762 74.1148 80.4967 74.3943 80.1518 74.3943Z" fill="#BDD1F9"/>
<path d="M71.8909 91.4186H56.9101V85.5091H71.8909V91.4186Z" fill="#F99746"/>
<path d="M71.8909 94.1859H56.9101V89.9598H71.8909V94.1859Z" fill="#B5453C"/>
<path d="M56.9101 85.5091L62.2843 90.0236L56.9101 94.1859V85.5091Z" fill="#474FEA"/>
<path d="M82.9288 87.1462H74.6865C74.3416 87.1462 74.0613 86.8668 74.0613 86.5218C74.0613 86.1769 74.3416 85.8975 74.6865 85.8975H82.9288C83.2737 85.8975 83.5532 86.1769 83.5532 86.5218C83.5532 86.8668 83.2737 87.1462 82.9288 87.1462Z" fill="#BDD1F9"/>
<path d="M80.1518 89.3483H74.6865C74.3416 89.3483 74.0613 89.0688 74.0613 88.7239C74.0613 88.379 74.3416 88.0987 74.6865 88.0987H80.1518C80.4967 88.0987 80.7762 88.379 80.7762 88.7239C80.7762 89.0688 80.4967 89.3483 80.1518 89.3483Z" fill="#BDD1F9"/>
<path d="M164.381 125.683H117.654V107.93H164.536C168.326 107.93 171.397 111.001 171.397 114.791V118.666C171.397 122.542 168.256 125.683 164.381 125.683Z" fill="#FCECDB"/>
<path d="M211.481 115.234V117.905C211.481 119.332 211.122 120.669 210.495 121.817C209.236 124.129 206.895 125.682 204.214 125.682H116.214C115.632 125.682 115.16 125.178 115.16 124.556V124.156C115.16 123.533 115.632 123.028 116.214 123.028H169.858C170.144 122.654 170.398 122.249 170.61 121.817C171.113 120.804 171.398 119.649 171.398 118.423V115.028C171.398 114.404 171.322 113.797 171.18 113.221C170.939 112.244 170.51 111.349 169.936 110.585H116.214C115.632 110.585 115.16 110.08 115.16 109.456V109.057C115.16 108.435 115.632 107.93 116.214 107.93H204.657C207.773 107.93 210.401 110.166 211.217 113.221C211.39 113.861 211.481 114.536 211.481 115.234Z" fill="#699DEE"/>
<path d="M211.218 113.221H171.18C170.939 112.244 170.51 111.349 169.936 110.585H116.214C115.632 110.585 115.16 110.08 115.16 109.456V109.057C115.16 108.434 115.632 107.93 116.214 107.93H204.658C207.774 107.93 210.402 110.165 211.218 113.221Z" fill="#548EE2"/>
<path d="M117.654 116.806L124.168 117.105L117.654 117.284V116.806Z" fill="#F4D2B8"/>
<path d="M117.653 119.592L133.154 119.89L117.653 120.07V119.592Z" fill="#F4D2B8"/>
<path d="M110.825 139.455H156.695V125.646H110.421C106.984 125.646 104.198 128.432 104.198 131.868V132.829C104.198 136.488 107.165 139.455 110.825 139.455Z" fill="#F99746"/>
<path d="M154.486 139.455H206.764V125.646H154.342C150.847 125.646 148.015 128.478 148.015 131.972V132.985C148.015 136.558 150.911 139.455 154.486 139.455Z" fill="#FCECDB"/>
<path d="M144.561 139.455H208.527C209.058 139.455 209.489 139.025 209.489 138.494V138.351C209.489 137.82 209.058 137.39 208.527 137.39H144.561C144.03 137.39 143.6 137.82 143.6 138.351V138.494C143.6 139.025 144.03 139.455 144.561 139.455Z" fill="#F99746"/>
<path d="M144.561 127.711H208.527C209.058 127.711 209.489 127.281 209.489 126.75V126.607C209.489 126.076 209.058 125.646 208.527 125.646H144.561C144.03 125.646 143.6 126.076 143.6 126.607V126.75C143.6 127.281 144.03 127.711 144.561 127.711Z" fill="#F99746"/>
<path d="M206.764 132.551L199.64 132.783L206.764 132.922V132.551Z" fill="#F4D2B8"/>
<path d="M206.764 129.372L189.819 129.605L206.764 129.745V129.372Z" fill="#F4D2B8"/>
<path d="M189.993 129.558C189.993 129.558 190.719 130.152 190.96 131.127C191.001 131.297 191.029 131.481 191.034 131.673C191.075 132.968 191.034 135.901 191.034 135.901L193.179 134.434L195.317 135.901V131.926C195.317 131.174 195.134 130.443 194.792 129.965C194.628 129.732 194.427 129.558 194.201 129.558H189.993Z" fill="#699DEE"/>
<path d="M189.993 129.558C189.993 129.558 190.719 130.152 190.96 131.127L195.256 131.185C195.256 131.185 195.088 129.788 194.2 129.558H189.993Z" fill="#568CDB"/>
<path d="M151.009 107.967H105.862V87.6788H151.173C155.179 87.6788 158.427 90.926 158.427 94.9324V100.549C158.427 104.646 155.106 107.967 151.009 107.967Z" fill="#FCECDB"/>
<path d="M158.454 95.5502V99.9169C158.442 101.782 157.578 103.4 156.308 104.265C155.682 104.689 154.96 104.932 154.191 104.932H104.479C103.896 104.932 103.424 105.496 103.424 106.192V106.708C103.424 107.403 103.896 107.967 104.479 107.967H190.359C192.823 107.967 195.002 106.504 196.316 104.265C197.145 102.854 197.633 101.136 197.633 99.2803V95.8353C197.633 94.5639 197.389 93.3603 196.953 92.2877C195.85 89.5598 193.511 87.6786 190.803 87.6786H104.479C103.896 87.6786 103.424 88.2416 103.424 88.9378V89.4524C103.424 90.1487 103.896 90.7126 104.479 90.7126H154.344C155.536 90.7126 156.615 91.3184 157.368 92.2877C158.035 93.1471 158.447 94.2908 158.454 95.5502Z" fill="#AFCDFB"/>
<path d="M103.424 106.192V106.708C103.424 107.403 103.896 107.967 104.479 107.967H190.359C192.823 107.967 195.001 106.504 196.316 104.265H156.308C155.683 104.689 154.96 104.932 154.191 104.932H104.479C103.896 104.932 103.424 105.496 103.424 106.192Z" fill="#A4C4F4"/>
<path d="M105.863 97.8222L112.236 98.1632L105.863 98.3691V97.8222Z" fill="#F4D2B8"/>
<path d="M105.863 93.1533L121.024 93.4942L105.863 93.6993V93.1533Z" fill="#F4D2B8"/>
<path d="M120.868 93.4268C120.868 93.4268 119.867 94.0705 119.536 95.1279C119.477 95.3129 119.44 95.5108 119.432 95.7192C119.376 97.1247 119.432 100.304 119.432 100.304L116.477 98.7143L113.531 100.304V95.9946C113.531 95.1796 113.784 94.3864 114.253 93.8678C114.481 93.6158 114.757 93.4268 115.069 93.4268H120.868Z" fill="#F99746"/>
<path d="M120.868 93.4266C120.868 93.4266 119.867 94.0704 119.536 95.1277L113.616 95.1908C113.616 95.1908 113.848 93.6763 115.069 93.4266H120.868Z" fill="#ED7D2B"/>
<path d="M45.4031 106.172C45.4031 106.172 54.6574 110.204 56.3372 110.131C58.017 110.057 68.3683 106.978 68.3683 106.978L68.1042 108.759C68.1042 108.759 60.1163 113.353 57.3235 113.614C54.574 113.87 45.1725 111.146 44.2648 110.571C43.3571 109.996 42.7654 106.755 45.4031 106.172Z" fill="#ED985F"/>
<path d="M44.0127 91.3401C44.0127 91.3401 40.5987 90.6915 38.8985 91.933C35.8184 94.1826 35.653 101.937 34.4987 103.092C33.3443 104.247 30.5617 103.754 30.314 109.732C30.0663 115.708 31.4218 116.208 29.8074 118.876C28.193 121.544 30.4904 124.215 30.4904 124.215C30.4904 124.215 29.5494 122.742 29.9527 121.679C29.9527 121.679 30.3444 124.025 31.8349 124.575C33.3255 125.125 33.546 125.528 33.784 126.335C33.784 126.335 46.5001 119.819 46.514 115.197C46.5279 110.576 49.0163 105.998 47.7943 103.995C47.7943 103.995 48.3386 104.851 48.4053 105.804C48.4053 105.804 49.1385 104.4 47.8676 103.092C46.5968 101.784 49.3584 99.0775 48.9496 95.9435C48.6688 93.7916 47.1589 91.4338 44.0127 91.3401Z" fill="#233862"/>
<path d="M46.5279 110.576C45.7151 111.14 44.696 111.604 43.4167 111.9C38.621 113.008 36.7832 108.955 36.093 106.172C36.747 105.798 37.3623 105.716 37.7177 105.673C38.0644 105.632 38.4289 105.605 38.7307 105.59C39.2693 105.178 40.0717 103.49 40.2492 100.868L40.4748 100.929L44.2542 101.964C44.2542 101.964 44.0811 103.165 43.9962 104.3C43.9306 105.189 43.9203 106.039 44.0886 106.246C44.3836 106.31 44.5606 106.352 44.5606 106.352L44.5625 106.355C44.6132 106.439 45.7097 108.242 46.5279 110.576Z" fill="#FFB27D"/>
<path d="M44.2544 101.964C44.2544 101.964 44.0806 103.165 43.9964 104.301C41.8552 104.087 40.8615 102.048 40.4746 100.93L44.2544 101.964Z" fill="#ED985F"/>
<path d="M44.8938 103.092C44.8938 103.092 39.8113 102.812 40.0346 99.6495C40.2579 96.4872 39.7525 94.3208 43.0069 94.366C46.2614 94.4113 46.8059 95.6625 46.9881 96.7368C47.1704 97.8103 46.2216 103.083 44.8938 103.092Z" fill="#FFB27D"/>
<path d="M46.9633 94.9678C46.2468 93.9597 45.6388 94.1261 45.2861 94.3886C42.6208 92.6641 40.6711 94.7909 40.6711 94.7909C40.1688 97.0356 38.4394 98.2182 38.4394 98.2182C38.4394 98.2182 39.3236 98.8555 41.4961 98.4605C42.1596 98.3393 42.7746 97.9177 43.3094 97.3918C42.3423 98.7771 41.0925 99.7351 41.0925 99.7351C43.725 98.74 45.0024 95.2699 45.1312 94.9023C45.4212 95.2028 45.9886 95.8514 46.1324 96.4573C46.3276 97.2804 47.1702 98.5679 47.6573 98.5461C47.6573 98.5461 48.0378 96.4783 46.9633 94.9678Z" fill="#233862"/>
<path d="M34.6453 120.909C34.1863 118.563 32.6898 109.189 34.1863 106.172C34.7238 105.089 36.8327 104.991 39.1466 105.086C39.8667 105.551 42.6103 107.307 43.7372 107.088C43.7493 107.086 43.7712 107.081 43.8002 107.073C44.3309 106.94 44.5313 106.568 44.0886 106.246C44.0877 106.246 45.2346 106.136 46.6578 106.404C47.4617 106.555 49.6298 107.677 49.6298 107.677C49.6298 107.677 48.5379 109.649 46.928 110.33C47.2018 112.779 46.7947 113.859 44.2541 119.516C42.1072 124.297 44.5437 128.602 44.5437 128.602C44.5437 128.602 31.9059 138.763 31.8356 133.59C31.7828 129.695 35.2319 123.908 34.6453 120.909Z" fill="#F9DDBF"/>
<path d="M45.1702 139.651C45.8575 139.573 46.4762 139.197 46.8605 138.622C46.9215 138.531 46.9867 138.432 47.0559 138.328C48.4944 136.15 49.0541 129.481 52.2899 122.376C53.078 120.646 55.9071 120.335 56.6785 118.38C56.6785 118.38 58.5772 112.042 53.0443 111.855C47.5115 111.668 38.2264 129.489 38.0798 131.359C37.9378 133.169 34.4219 140.863 45.1702 139.651Z" fill="#DD6D22"/>
<path d="M67.1607 139.505H59.286C59.286 139.505 58.9915 138.249 59.5086 137.394C59.9662 136.638 59.7908 136.208 59.4519 135.582C59.8087 135.728 60.2698 135.86 60.7779 135.831C61.1704 135.808 61.5856 135.631 61.9491 135.419C62.2884 135.806 63.7399 137.451 64.193 137.776C64.7076 138.146 67.0024 138.014 67.1607 139.505Z" fill="#233862"/>
<path d="M56.8584 113.687C57.3327 117.242 59.1844 128.463 62.4507 133.937C63.5041 135.702 59.7976 136.691 59.7777 136.686C59.2805 136.556 58.4524 135.763 58.0706 135.419C55.4187 133.029 50.0352 126.262 50.0352 120.836C50.0352 118.191 49.9888 113.137 51.9126 111.854C53.0973 111.063 56.6702 112.275 56.8584 113.687Z" fill="#ED7D2B"/>
<path d="M40.4743 139.505C40.4743 139.505 40.7662 139.099 41.2751 138.328C41.8807 137.41 42.5508 135.605 43.364 133.291C44.2182 130.862 45.2315 127.873 46.4977 124.764C46.8885 123.804 47.3036 122.832 47.7449 121.863C48.5331 120.133 50.7013 120.372 51.4726 118.416C51.4726 118.416 54.4824 111.637 48.9496 111.451C43.4167 111.263 32.9032 129.584 32.299 131.359C31.6376 133.3 28.4107 141.366 40.4743 139.505Z" fill="#F99746"/>
<path d="M61.3804 139.505H53.5051C53.5051 139.505 53.2108 138.249 53.7277 137.394C54.1854 136.638 54.01 136.208 53.6711 135.582C54.0278 135.728 54.4893 135.86 54.9974 135.831C55.3898 135.808 55.8047 135.631 56.1686 135.419C56.5075 135.806 57.9588 137.451 58.4123 137.776C58.9269 138.146 61.2213 138.014 61.3804 139.505Z" fill="#2B478B"/>
<path d="M43.364 133.291C44.2182 130.862 45.2315 127.873 46.4977 124.764C46.167 122.408 45.4536 120.347 44.2541 119.516C44.2541 119.516 41.344 128.532 43.364 133.291Z" fill="#ED7D2B"/>
<path d="M52.2615 113.435C52.7357 116.99 53.4036 128.463 56.6701 133.937C57.7233 135.702 54.0168 136.691 53.9968 136.686C53.4997 136.556 52.6715 135.763 52.2898 135.419C49.6378 133.029 44.2543 126.262 44.2543 120.836C44.2543 118.191 47.3592 113.35 49.2828 112.065C50.4676 111.275 52.0731 112.023 52.2615 113.435Z" fill="#F99746"/>
<path d="M45.8452 101.273C45.8452 101.273 45.3648 101.083 44.0127 101.193C44.0127 101.193 44.0845 101.721 45.0816 101.772C45.6464 101.802 45.8452 101.273 45.8452 101.273Z" fill="white"/>
<path d="M69.3554 103.253L67.7229 100.307L64.1914 110.163L66.2746 112.4L69.3554 103.253Z" fill="#163560"/>
<path d="M60.8312 104.978L57.5478 114.358L66.2746 112.4L69.3554 103.253L60.8312 104.978Z" fill="#1C468A"/>
<path d="M57.7218 113.885L57.5688 113.617L60.6753 104.741L60.8312 104.978L57.7218 113.885Z" fill="#EFDECE"/>
<path d="M60.6753 104.741L68.9491 103.131L69.3554 103.253L60.8312 104.978L60.6753 104.741Z" fill="#FCECDB"/>
<path d="M69.3554 103.253L67.5904 100.451L66.4644 103.615L68.9491 103.131L69.3554 103.253Z" fill="#EFDECE"/>
<path d="M63.3506 106.337C63.067 106.282 62.458 106.052 61.8417 105.883C62.0259 105.74 62.2302 105.565 62.2876 105.384C62.3974 105.037 62.4709 104.925 62.1042 105.035C61.7375 105.145 60.4548 105.733 60.4548 105.733L60.458 105.735C59.7294 105.947 59.0579 106.978 59.0579 106.978C59.0579 106.978 50.0351 110.149 48.9496 110.204C47.2703 110.288 36.0929 106.172 36.0929 106.172C33.4551 106.754 34.0469 109.996 34.9546 110.571C35.8622 111.146 43.9051 114.072 48.6716 114.127C51.0859 114.155 59.8679 108.51 59.8679 108.51C59.8679 108.51 60.8942 108.041 61.7011 108.188C62.5073 108.334 64.3772 108.188 64.7803 107.528C65.1834 106.868 63.8271 106.428 63.3506 106.337Z" fill="#FFB27D"/>
<path d="M41.8516 108.202C41.8516 108.202 40.8519 111.367 37.4187 112.087C37.4187 112.087 31.7491 110.34 34.572 106.478C34.572 106.478 37.3631 104.404 41.8516 108.202Z" fill="#F9DDBF"/>
<path d="M69.2092 106.575H69.2084C69.2108 106.488 69.2019 106.402 69.1785 106.318C69.1785 106.318 68.3691 105.039 68.1042 104.986C67.298 104.827 67.298 105.889 67.4693 106.575C67.588 107.052 67.8909 107.511 68.1365 107.758L68.1042 108.759C69.4677 108.01 69.2092 106.575 69.2092 106.575Z" fill="#FFB27D"/>
<path d="M156.828 104.407C158.311 107.031 160.192 108.053 160.192 108.053L168.049 108.108C168.049 108.108 155.697 102.406 156.828 104.407Z" fill="#233862"/>
<path d="M162.719 124.669C162.921 124.905 162.946 125.167 162.842 125.447L162.841 125.451C162.65 125.967 162.026 126.541 161.303 127.113C161.211 127.187 161.128 127.254 161.057 127.316C161.038 127.332 161.019 127.348 161.002 127.364C160.988 127.377 160.973 127.39 160.959 127.402C160.284 128.016 160.536 128.159 159.322 129.406C157.938 130.825 156.992 130.844 156.724 130.712C156.497 130.599 156.965 129.844 157.484 128.996C157.509 128.955 157.533 128.914 157.559 128.872C157.629 128.759 157.696 128.645 157.765 128.532C158.373 127.511 158.222 127.028 158.09 125.501C157.983 124.26 156.21 118.56 156.21 118.56L158.845 118.124C158.845 118.124 159.607 122.659 160.475 123.364C160.939 123.738 161.463 123.746 161.909 124.025C161.941 124.044 161.971 124.065 162.003 124.085C162.256 124.256 162.516 124.432 162.719 124.669Z" fill="#FFB27D"/>
<path d="M162.72 124.669C162.921 124.905 162.946 125.167 162.842 125.447L162.841 125.451C162.608 125.966 162.001 126.537 161.301 127.108C161.21 127.183 161.128 127.251 161.057 127.316C161.038 127.332 161.019 127.348 161.002 127.364C160.988 127.377 160.973 127.39 160.959 127.402C160.284 128.016 160.536 128.159 159.322 129.406C157.938 130.825 156.992 130.844 156.724 130.712C156.497 130.599 156.965 129.844 157.484 128.996C157.752 128.9 158.998 128.404 159.945 127.209C160.779 126.159 161.341 124.807 161.909 124.025C161.941 124.044 161.971 124.065 162.003 124.085C162.256 124.256 162.516 124.432 162.72 124.669Z" fill="#233862"/>
<path d="M141.503 122.875C141.336 123.687 140.178 123.543 138.886 123.217C137.594 122.892 137.899 123.27 136.06 123.053C134.219 122.836 133.666 122.145 133.612 121.872C133.564 121.628 134.473 121.548 135.451 121.443C135.574 121.431 135.697 121.416 135.821 121.401C136.924 121.271 137.736 120.565 138.74 119.989C139.693 119.443 141.124 117.199 141.124 117.199L143.648 117.416C143.648 117.416 142.308 119.42 141.79 120.292C141.484 120.804 141.495 121.485 141.529 122.011C141.548 122.297 141.564 122.589 141.503 122.875Z" fill="#FFB27D"/>
<path d="M138.887 123.217C137.595 122.892 137.9 123.27 136.06 123.053C134.22 122.836 133.666 122.145 133.613 121.872C133.564 121.628 134.474 121.548 135.451 121.443L135.461 121.462C135.461 121.462 136.559 122.253 138.092 122.3C139.341 122.34 140.667 121.991 141.53 122.011C141.548 122.297 141.564 122.589 141.504 122.875C141.336 123.687 140.179 123.543 138.887 123.217Z" fill="#233862"/>
<path d="M151.297 106.793L153.613 113.163L156.638 121.481C156.638 121.481 157.473 121.567 158.276 121.342C159.015 121.135 159.865 120.583 159.865 120.583C159.865 120.583 159.072 111.67 157.512 106.545C157.112 105.23 156.661 104.165 156.158 103.564C153.704 100.621 151.297 106.793 151.297 106.793Z" fill="#233862"/>
<path d="M153.769 96.7199C155.319 96.232 159.726 96.9033 164.152 97.8023L165.092 96.2789L174.669 95.5988C174.669 95.5988 177.778 102.625 176.018 107.077C175.759 107.731 175.128 108.003 174.267 108.011L174.266 108.012C174.266 108.012 168.553 108.112 166.702 108.099C161.941 108.065 156.65 104.755 155.963 104.612C154.84 104.38 154.374 106.627 153.232 108.982C152.09 111.338 142.581 119.372 142.581 119.372C142.581 119.372 141.128 119.377 140.53 119.148C139.886 118.901 139.652 118.585 139.652 118.585C139.652 118.585 150.272 97.8209 153.769 96.7199Z" fill="#2B478B"/>
<path d="M165.24 83.0961C168.636 84.9967 175.524 88.9361 175.56 88.912C175.56 88.912 178.095 89.8877 179.544 88.9403C181.958 87.361 183.277 83.0743 178.908 79.3466C176.729 77.487 175.175 77.0275 174.96 74.0816C174.842 72.4838 172.696 67.1975 169.065 67.6593C168.762 67.698 168.457 67.725 168.151 67.713C167.727 67.6964 167.027 67.7532 166.306 68.1754C164.245 69.3831 160.135 82.3336 165.24 83.0961Z" fill="#233862"/>
<path d="M168.109 81.5185C168.095 81.5283 169.783 82.1179 170.917 81.6243C171.986 81.1615 172.804 79.416 172.788 79.4151C172.304 79.3894 171.775 78.9621 171.386 76.1809L171.179 76.2536L167.703 77.4766C167.703 77.4766 167.946 78.5913 168.102 79.6511C168.231 80.5412 168.299 81.3942 168.109 81.5185Z" fill="#FFB27D"/>
<path d="M167.703 77.4766C167.703 77.4766 167.851 78.2578 168.057 79.374C170.051 79.0292 170.89 77.3289 171.179 76.2538L167.703 77.4766Z" fill="#ED975D"/>
<path d="M167.179 78.5776C167.179 78.5776 171.927 77.9743 171.505 75.0235C171.084 72.072 171.413 70.0071 168.364 70.2676C165.315 70.5278 164.888 71.7377 164.789 72.757C164.69 73.7764 165.932 78.6585 167.179 78.5776Z" fill="#FFB27D"/>
<path d="M164.975 71.1423C164.975 71.1423 167.992 73.7803 170.055 74.0056C172.12 74.2311 172.906 73.5736 172.906 73.5736C172.906 73.5736 171.696 72.5541 170.975 70.9181C170.762 70.4358 170.308 70.1026 169.783 70.0537C168.309 69.9159 165.515 69.838 164.975 71.1423Z" fill="#233862"/>
<path d="M166.873 70.9213C166.873 70.9213 165.85 71.8964 165.526 72.623C165.212 73.3233 165.107 75.0042 165.349 75.6738C165.349 75.6738 163.787 72.585 164.694 71.0962C165.656 69.5175 166.873 70.9213 166.873 70.9213Z" fill="#233862"/>
<path d="M164.066 88.4775C164.141 98.0801 164.052 96.0736 165.095 96.9921C165.347 97.2133 166.057 97.3491 166.993 97.4169C169.935 97.6334 175.115 97.1851 175.316 96.6423C176.008 94.7643 175.533 94.1761 176.12 91.2974C176.181 90.9913 176.256 90.6601 176.345 90.2998C176.831 88.3232 177.296 87.6528 175.641 84.4606C174.142 81.5688 172.58 79.2199 172.438 79.3031C168.41 81.6552 168.102 79.652 168.102 79.652C168.102 79.652 164.027 83.7942 164.066 88.4775Z" fill="#F9DDBF"/>
<path d="M153.613 113.163L156.638 121.481C156.638 121.481 157.473 121.567 158.276 121.342C159.015 121.135 159.865 120.583 159.865 120.583C159.865 120.583 159.072 111.67 157.512 106.545L153.613 113.163Z" fill="#2B478B"/>
<path d="M168.102 79.6509C168.102 79.6509 163.971 80.3213 163.474 82.0943C162.977 83.8681 160.052 94.2914 160.052 94.2914C160.052 94.2914 162.146 94.6832 163.122 93.7211C164.098 92.7591 166.558 84.7542 166.558 84.7542L168.102 79.6509Z" fill="#F9DDBF"/>
<path d="M166.993 97.4168C169.936 97.6332 175.115 97.1849 175.316 96.6421C176.009 94.7641 175.533 94.1761 176.12 91.2972L174.729 87.2884C174.729 87.2884 174.931 91.7432 173.61 92.9054C172.29 94.067 168.217 95.1284 167.572 96.1025C167.261 96.5694 167.054 97.0395 166.993 97.4168Z" fill="#F2CCAA"/>
<path d="M170.38 95.5681C170.38 95.5681 167.479 94.9008 167.009 95.1553C166.538 95.4097 165.386 96.3402 165.241 96.6666C165.094 96.9921 166.286 96.4259 166.672 96.3249C166.923 96.2595 167.579 96.4929 167.905 96.6036C169.272 97.0705 170.114 96.8411 170.114 96.8411L170.38 95.5681Z" fill="#FFB27D"/>
<path d="M172.439 79.3008C172.439 79.3008 176.337 79.569 177.675 81.4616C179.557 84.1255 183.247 95.4494 181.076 96.9404C178.631 98.6206 169.998 97.3063 169.998 97.3063C169.998 97.3063 169.72 95.9607 170.124 95.3128C170.53 94.6658 177.039 93.6609 177.341 93.3628C177.644 93.0656 173.63 87.4849 173.638 86.585C173.644 85.6844 172.439 79.3008 172.439 79.3008Z" fill="#F9DDBF"/>
<path d="M166.863 95.9629C166.863 95.9629 166.248 96.7432 166.049 96.8361C165.848 96.9282 165.719 96.904 165.719 96.904L166.136 96.1689L166.863 95.9629Z" fill="#FFB27D"/>
<path d="M167.009 95.155L165.233 96.0024C165.233 96.0024 165.308 96.126 165.526 96.1171C165.743 96.109 166.295 95.912 166.295 95.912L167.009 95.155Z" fill="#FFB27D"/>
<path d="M166.427 98.1025L152.431 98.004L148.294 87.5041L162.268 87.6026L166.427 98.1025Z" fill="#F99746"/>
<path d="M152.268 97.5954L170.752 97.7254L170.749 98.1334L152.43 98.0041L152.268 97.5954Z" fill="#ED7D2B"/>
<path d="M156.001 92.7941C155.897 92.425 156.112 92.1285 156.481 92.1309C156.849 92.1333 157.23 92.4347 157.333 92.803C157.436 93.1721 157.221 93.4693 156.853 93.4662C156.485 93.4638 156.104 93.1624 156.001 92.7941Z" fill="white"/>
<path d="M123.891 131.152L123.889 139.606L81.3619 139.598L81.3637 131.144L123.891 131.152Z" fill="#C65447"/>
<path d="M81.361 139.599L75.1106 136.925L71.4757 135.369L75.1962 133.779L81.3634 131.144C81.3634 131.144 82.1865 133.202 82.1986 135.138C82.218 138.176 81.361 139.599 81.361 139.599Z" fill="#FCECDB"/>
<path d="M128.834 133.957V136.63C128.833 138.274 127.501 139.606 125.856 139.606H123.889L123.89 131.152L126.03 131.153C127.579 131.153 128.835 132.409 128.834 133.957Z" fill="#FCECDB"/>
<path d="M75.1962 133.779C75.3513 134.633 75.4854 135.942 75.1106 136.925L71.4757 135.369L75.1962 133.779Z" fill="#2B478B"/>
<path d="M221.481 140.221H0.284892C0.128239 140.221 0 140.093 0 139.937V139.75C0 139.593 0.128239 139.465 0.284892 139.465H221.481C221.639 139.465 221.767 139.593 221.767 139.75V139.937C221.767 140.093 221.639 140.221 221.481 140.221Z" fill="#2E3552"/>
</svg>
